<svg width="310" height="413" viewBox="0 0 310 413" fill="none" xmlns="http://www.w3.org/2000/svg">
<path d="M154.93 412.138C92.8981 371.111 -1.03412 275.048 0.00860718 155.083C0.749079 69.3075 69.8231 0 154.93 0C240.037 0 309.126 69.3075 309.866 155.083C310.894 275.048 216.962 371.111 154.93 412.138Z" fill="#0877FB"/>
<path d="M299.588 225.983C296.944 234.729 293.861 243.292 290.385 251.626L245.776 225.618C242.512 230.014 238.946 234.165 235.108 238.041C214.647 258.707 186.359 271.497 155.124 271.497C123.889 271.497 95.6154 258.707 75.1392 238.041C54.6636 217.361 42 188.804 42 157.256C42 125.693 54.6636 97.1367 75.1392 76.4559C95.6154 55.7905 123.889 43 155.124 43C186.359 43 214.647 55.7905 235.108 76.4559C255.584 97.1367 268.247 125.693 268.247 157.256C268.247 173.266 264.983 188.53 259.09 202.358L299.588 225.983ZM216.264 95.4879C200.624 79.6912 179 69.9228 155.124 69.9228C131.247 69.9228 109.623 79.6912 93.983 95.4879C78.3431 111.3 68.6563 133.126 68.6563 157.256C68.6563 181.371 78.3431 203.196 93.983 219.008C109.623 234.806 131.247 244.573 155.124 244.573C179 244.573 200.624 234.806 216.264 219.008C231.919 203.196 241.591 181.371 241.591 157.256C241.591 133.126 231.919 111.3 216.264 95.4879Z" fill="white"/>
</svg>
